<svg width="24" height="24" viewBox="0 0 24 24" fill="none" xmlns="http://www.w3.org/2000/svg">
<path d="M12 5.2V4M12 5.2C11.248 5.2 8.4224 8.2344 7.9776 12.1632M12 5.2C12.752 5.2 15.5776 8.2344 16.0224 12.1632M12 5.2C15.9496 5.2 19.244 7.9488 20 11.6C18.8896 12.56 16.8856 12.376 16.0224 12.1632M12 5.2C8.0504 5.2 4.756 7.9488 4 11.6C5.1104 12.56 7.1144 12.376 7.9776 12.1632M7.9776 12.1632C9.20786 12.8466 10.5927 13.2036 12 13.2C13.4073 13.2036 14.7921 12.8466 16.0224 12.1632" stroke="#15BE63" stroke-width="1.2" stroke-linecap="round" stroke-linejoin="round"/>
<path d="M11.9996 13.2002V18.8002C11.9996 19.1185 11.8732 19.4237 11.6481 19.6487C11.4231 19.8738 11.1179 20.0002 10.7996 20.0002C10.4813 20.0002 10.1761 19.8738 9.95108 19.6487C9.72604 19.4237 9.59961 19.1185 9.59961 18.8002V18.4002" stroke="#15BE63" stroke-width="1.2" stroke-linecap="round" stroke-linejoin="round"/>
</svg>
